<svg preserveAspectRatio="none" overflow="visible" style="display: block;" width="30" height="30" viewBox="0 0 30 30" fill="none" xmlns="http://www.w3.org/2000/svg">
<g id="home_24dp_E3E3E3_FILL1_wght300_GRAD0_opsz24 1">
<path id="Vector" d="M5.625 23.75V12.6922C5.625 12.3345 5.705 11.9956 5.865 11.6756C6.02521 11.3554 6.24646 11.0918 6.52875 10.8847L13.6444 5.52406C14.0392 5.22281 14.4904 5.07219 14.9981 5.07219C15.5058 5.07219 15.9583 5.22281 16.3556 5.52406L23.4713 10.8847C23.7535 11.0918 23.9748 11.3554 24.135 11.6756C24.295 11.9956 24.375 12.3345 24.375 12.6922V23.75C24.375 24.2613 24.1903 24.7016 23.8209 25.0709C23.4516 25.4403 23.0113 25.625 22.5 25.625H18.5097C18.1895 25.625 17.9211 25.5167 17.7047 25.3C17.488 25.0835 17.3797 24.8152 17.3797 24.495V18.3894C17.3797 18.0694 17.2715 17.801 17.055 17.5844C16.8385 17.3679 16.5702 17.2597 16.25 17.2597H13.75C13.4298 17.2597 13.1615 17.3679 12.945 17.5844C12.7285 17.801 12.6203 18.0694 12.6203 18.3894V24.495C12.6203 24.8152 12.512 25.0835 12.2953 25.3C12.0789 25.5167 11.8105 25.625 11.4903 25.625H7.5C6.98875 25.625 6.54844 25.4403 6.17906 25.0709C5.80969 24.7016 5.625 24.2613 5.625 23.75Z" fill="white"/>
</g>
</svg>
